<svg width="656" height="47" viewBox="0 0 656 47" fill="none" xmlns="http://www.w3.org/2000/svg">
<path d="M40.3337 45.0401C30.3497 46.1067 21.1764 46.6401 12.8137 46.6401C8.63241 46.6401 5.56041 45.6587 3.59775 43.6961C1.63508 41.7334 0.653748 38.6614 0.653748 34.4801V14.0001C0.653748 9.52006 1.65641 6.27739 3.66175 4.27206C5.70975 2.22406 8.97375 1.20006 13.4537 1.20006H36.4937V10.1601H16.0137C13.4537 10.1601 12.1737 11.4401 12.1737 14.0001V34.4801C12.1737 35.4614 12.4511 36.2507 13.0057 36.8481C13.6031 37.4027 14.3924 37.6801 15.3737 37.6801C20.2804 37.6801 24.7604 37.5734 28.8137 37.3601V28.0801H20.4937V20.4001H40.3337V45.0401Z" fill="white"/>
<path d="M46.7462 1.20006H73.6263C78.1063 1.20006 81.3489 2.22406 83.3542 4.27206C85.4022 6.27739 86.4262 9.52006 86.4262 14.0001V19.7601C86.4262 23.3014 85.8289 26.0534 84.6342 28.0161C83.4822 29.9787 81.6262 31.2801 79.0662 31.9201L87.0663 46.0001H74.5863L67.2262 32.5601H58.2662V46.0001H46.7462V1.20006ZM74.9062 14.0001C74.9062 11.4401 73.6262 10.1601 71.0662 10.1601H58.2662V23.6001H71.0662C73.6262 23.6001 74.9062 22.3201 74.9062 19.7601V14.0001Z" fill="white"/>
<path d="M121.609 1.20006H133.129V33.8401C133.129 38.3201 132.105 41.5841 130.057 43.6321C128.051 45.6374 124.809 46.6401 120.329 46.6401H105.609C101.129 46.6401 97.8647 45.6374 95.8167 43.6321C93.8114 41.5841 92.8087 38.3201 92.8087 33.8401V1.20006H104.329V33.8401C104.329 36.4001 105.609 37.6801 108.169 37.6801H117.769C120.329 37.6801 121.609 36.4001 121.609 33.8401V1.20006Z" fill="white"/>
<path d="M140.809 1.20006H167.689C172.169 1.20006 175.411 2.22406 177.417 4.27206C179.465 6.27739 180.489 9.52006 180.489 14.0001V20.4001C180.489 24.8801 179.465 28.1441 177.417 30.1921C175.411 32.1974 172.169 33.2001 167.689 33.2001H152.329V46.0001H140.809V1.20006ZM168.969 14.0001C168.969 11.4401 167.689 10.1601 165.129 10.1601H152.329V24.2401H165.129C167.689 24.2401 168.969 22.9601 168.969 20.4001V14.0001Z" fill="white"/>
<path d="M215.046 13.3601C215.046 10.8001 213.766 9.52006 211.206 9.52006H200.326C197.766 9.52006 196.486 10.8001 196.486 13.3601V33.8401C196.486 36.4001 197.766 37.6801 200.326 37.6801H211.206C213.766 37.6801 215.046 36.4001 215.046 33.8401V13.3601ZM226.566 33.8401C226.566 38.3201 225.542 41.5841 223.494 43.6321C221.489 45.6374 218.246 46.6401 213.766 46.6401H197.766C193.286 46.6401 190.022 45.6374 187.974 43.6321C185.969 41.5841 184.966 38.3201 184.966 33.8401V13.3601C184.966 8.88006 185.969 5.63739 187.974 3.63206C190.022 1.58406 193.286 0.560059 197.766 0.560059H213.766C218.246 0.560059 221.489 1.58406 223.494 3.63206C225.542 5.63739 226.566 8.88006 226.566 13.3601V33.8401Z" fill="white"/>
<path d="M277.144 1.20006C281.965 1.20006 285.613 2.45872 288.088 4.97606C290.605 7.45073 291.864 11.0987 291.864 15.9201V31.2801C291.864 36.1014 290.605 39.7707 288.088 42.2881C285.613 44.7627 281.965 46.0001 277.144 46.0001H252.184V1.20006H277.144ZM280.344 15.9201C280.344 12.0801 278.424 10.1601 274.584 10.1601H263.704V37.0401H274.584C278.424 37.0401 280.344 35.1201 280.344 31.2801V15.9201Z" fill="white"/>
<path d="M333.766 46.0001H298.246V1.20006H333.766V10.1601H309.766V18.8001H328.646V27.7601H309.766V37.0401H333.766V46.0001Z" fill="white"/>
<path d="M393.579 46.0001H358.059V1.20006H393.579V10.1601H369.579V18.8001H388.459V27.7601H369.579V37.0401H393.579V46.0001Z" fill="white"/>
<path d="M397.34 36.7201C409.03 37.3601 416.945 37.6801 421.084 37.6801C422.065 37.6801 422.833 37.4027 423.388 36.8481C423.985 36.2507 424.284 35.4614 424.284 34.4801V28.7201H409.564C405.084 28.7201 401.82 27.7174 399.772 25.7121C397.766 23.6641 396.764 20.4001 396.764 15.9201V14.0001C396.764 9.52006 397.766 6.27739 399.772 4.27206C401.82 2.22406 405.084 1.20006 409.564 1.20006H432.028V10.1601H412.124C409.564 10.1601 408.284 11.4401 408.284 14.0001V15.2801C408.284 17.8401 409.564 19.1201 412.124 19.1201H423.644C427.825 19.1201 430.897 20.1014 432.86 22.0641C434.822 24.0267 435.804 27.0987 435.804 31.2801V34.4801C435.804 38.6614 434.822 41.7334 432.86 43.6961C430.897 45.6587 427.825 46.6401 423.644 46.6401C421.468 46.6401 419.164 46.5974 416.732 46.5121L410.844 46.2561C406.492 46.0427 401.99 45.7441 397.34 45.3601V36.7201Z" fill="white"/>
<path d="M460.131 46.0001H448.611V10.1601H435.171V1.20006H473.571V10.1601H460.131V46.0001Z" fill="white"/>
<path d="M506.859 1.20006H518.379V33.8401C518.379 38.3201 517.355 41.5841 515.307 43.6321C513.301 45.6374 510.059 46.6401 505.579 46.6401H490.859C486.379 46.6401 483.115 45.6374 481.067 43.6321C479.061 41.5841 478.059 38.3201 478.059 33.8401V1.20006H489.579V33.8401C489.579 36.4001 490.859 37.6801 493.419 37.6801H503.019C505.579 37.6801 506.859 36.4001 506.859 33.8401V1.20006Z" fill="white"/>
<path d="M551.019 1.20006C555.84 1.20006 559.488 2.45872 561.963 4.97606C564.48 7.45073 565.739 11.0987 565.739 15.9201V31.2801C565.739 36.1014 564.48 39.7707 561.963 42.2881C559.488 44.7627 555.84 46.0001 551.019 46.0001H526.059V1.20006H551.019ZM554.219 15.9201C554.219 12.0801 552.299 10.1601 548.459 10.1601H537.579V37.0401H548.459C552.299 37.0401 554.219 35.1201 554.219 31.2801V15.9201Z" fill="white"/>
<path d="M600.921 13.3601C600.921 10.8001 599.641 9.52006 597.081 9.52006H586.201C583.641 9.52006 582.361 10.8001 582.361 13.3601V33.8401C582.361 36.4001 583.641 37.6801 586.201 37.6801H597.081C599.641 37.6801 600.921 36.4001 600.921 33.8401V13.3601ZM612.441 33.8401C612.441 38.3201 611.417 41.5841 609.369 43.6321C607.364 45.6374 604.121 46.6401 599.641 46.6401H583.641C579.161 46.6401 575.897 45.6374 573.849 43.6321C571.844 41.5841 570.841 38.3201 570.841 33.8401V13.3601C570.841 8.88006 571.844 5.63739 573.849 3.63206C575.897 1.58406 579.161 0.560059 583.641 0.560059H599.641C604.121 0.560059 607.364 1.58406 609.369 3.63206C611.417 5.63739 612.441 8.88006 612.441 13.3601V33.8401Z" fill="white"/>
<path d="M617.527 36.7201C629.218 37.3601 637.133 37.6801 641.271 37.6801C642.253 37.6801 643.021 37.4027 643.575 36.8481C644.173 36.2507 644.471 35.4614 644.471 34.4801V28.7201H629.751C625.271 28.7201 622.007 27.7174 619.959 25.7121C617.954 23.6641 616.951 20.4001 616.951 15.9201V14.0001C616.951 9.52006 617.954 6.27739 619.959 4.27206C622.007 2.22406 625.271 1.20006 629.751 1.20006H652.215V10.1601H632.311C629.751 10.1601 628.471 11.4401 628.471 14.0001V15.2801C628.471 17.8401 629.751 19.1201 632.311 19.1201H643.831C648.013 19.1201 651.085 20.1014 653.047 22.0641C655.01 24.0267 655.991 27.0987 655.991 31.2801V34.4801C655.991 38.6614 655.01 41.7334 653.047 43.6961C651.085 45.6587 648.013 46.6401 643.831 46.6401C641.655 46.6401 639.351 46.5974 636.919 46.5121L631.031 46.2561C626.679 46.0427 622.178 45.7441 617.527 45.3601V36.7201Z" fill="white"/>
</svg>
