<svg width="358" height="340" viewBox="0 0 358 340" fill="none" xmlns="http://www.w3.org/2000/svg">
<path d="M20.1201 309.8C19.6134 308.867 18.8801 308.16 17.9201 307.68C16.9867 307.173 15.8801 306.92 14.6001 306.92C12.3867 306.92 10.6134 307.653 9.28007 309.12C7.94674 310.56 7.28007 312.493 7.28007 314.92C7.28007 317.507 7.9734 319.533 9.36007 321C10.7734 322.44 12.7067 323.16 15.1601 323.16C16.8401 323.16 18.2534 322.733 19.4001 321.88C20.5734 321.027 21.4267 319.8 21.9601 318.2H13.2801V313.16H28.1601V319.52C27.6534 321.227 26.7867 322.813 25.5601 324.28C24.3601 325.747 22.8267 326.933 20.9601 327.84C19.0934 328.747 16.9867 329.2 14.6401 329.2C11.8667 329.2 9.38674 328.6 7.20007 327.4C5.04007 326.173 3.34674 324.48 2.12007 322.32C0.920068 320.16 0.320068 317.693 0.320068 314.92C0.320068 312.147 0.920068 309.68 2.12007 307.52C3.34674 305.333 5.04007 303.64 7.20007 302.44C9.36007 301.213 11.8267 300.6 14.6001 300.6C17.9601 300.6 20.7867 301.413 23.0801 303.04C25.4001 304.667 26.9334 306.92 27.6801 309.8H20.1201Z" fill="#1E1926"/>
<path d="M38.7888 310.4C39.5888 309.173 40.5888 308.213 41.7888 307.52C42.9888 306.8 44.3222 306.44 45.7888 306.44V313.68H43.9088C42.2022 313.68 40.9222 314.053 40.0688 314.8C39.2155 315.52 38.7888 316.8 38.7888 318.64V329H31.9488V306.68H38.7888V310.4Z" fill="#1E1926"/>
<path d="M71.0982 306.68V329H64.2582V325.96C63.5649 326.947 62.6182 327.747 61.4182 328.36C60.2449 328.947 58.9382 329.24 57.4982 329.24C55.7915 329.24 54.2849 328.867 52.9782 328.12C51.6715 327.347 50.6582 326.24 49.9382 324.8C49.2182 323.36 48.8582 321.667 48.8582 319.72V306.68H55.6582V318.8C55.6582 320.293 56.0449 321.453 56.8182 322.28C57.5915 323.107 58.6315 323.52 59.9382 323.52C61.2715 323.52 62.3249 323.107 63.0982 322.28C63.8715 321.453 64.2582 320.293 64.2582 318.8V306.68H71.0982Z" fill="#1E1926"/>
<path d="M82.8513 309.84C83.518 308.8 84.438 307.96 85.6113 307.32C86.7847 306.68 88.158 306.36 89.7313 306.36C91.5713 306.36 93.238 306.827 94.7313 307.76C96.2247 308.693 97.398 310.027 98.2513 311.76C99.1313 313.493 99.5713 315.507 99.5713 317.8C99.5713 320.093 99.1313 322.12 98.2513 323.88C97.398 325.613 96.2247 326.96 94.7313 327.92C93.238 328.853 91.5713 329.32 89.7313 329.32C88.1847 329.32 86.8113 329 85.6113 328.36C84.438 327.72 83.518 326.893 82.8513 325.88V339.64H76.0113V306.68H82.8513V309.84ZM92.6113 317.8C92.6113 316.093 92.1313 314.76 91.1713 313.8C90.238 312.813 89.078 312.32 87.6913 312.32C86.3313 312.32 85.1713 312.813 84.2113 313.8C83.278 314.787 82.8113 316.133 82.8113 317.84C82.8113 319.547 83.278 320.893 84.2113 321.88C85.1713 322.867 86.3313 323.36 87.6913 323.36C89.0513 323.36 90.2113 322.867 91.1713 321.88C92.1313 320.867 92.6113 319.507 92.6113 317.8Z" fill="#1E1926"/>
<path d="M113.32 329.32C111.133 329.32 109.16 328.853 107.4 327.92C105.666 326.987 104.293 325.653 103.28 323.92C102.293 322.187 101.8 320.16 101.8 317.84C101.8 315.547 102.306 313.533 103.32 311.8C104.333 310.04 105.72 308.693 107.48 307.76C109.24 306.827 111.213 306.36 113.4 306.36C115.586 306.36 117.56 306.827 119.32 307.76C121.08 308.693 122.466 310.04 123.48 311.8C124.493 313.533 125 315.547 125 317.84C125 320.133 124.48 322.16 123.44 323.92C122.426 325.653 121.026 326.987 119.24 327.92C117.48 328.853 115.506 329.32 113.32 329.32ZM113.32 323.4C114.626 323.4 115.733 322.92 116.64 321.96C117.573 321 118.04 319.627 118.04 317.84C118.04 316.053 117.586 314.68 116.68 313.72C115.8 312.76 114.706 312.28 113.4 312.28C112.066 312.28 110.96 312.76 110.08 313.72C109.2 314.653 108.76 316.027 108.76 317.84C108.76 319.627 109.186 321 110.04 321.96C110.92 322.92 112.013 323.4 113.32 323.4Z" fill="#1E1926"/>
<path d="M147.625 300.92C150.585 300.92 153.172 301.507 155.385 302.68C157.598 303.853 159.305 305.507 160.505 307.64C161.732 309.747 162.345 312.187 162.345 314.96C162.345 317.707 161.732 320.147 160.505 322.28C159.305 324.413 157.585 326.067 155.345 327.24C153.132 328.413 150.558 329 147.625 329H137.105V300.92H147.625ZM147.185 323.08C149.772 323.08 151.785 322.373 153.225 320.96C154.665 319.547 155.385 317.547 155.385 314.96C155.385 312.373 154.665 310.36 153.225 308.92C151.785 307.48 149.772 306.76 147.185 306.76H143.945V323.08H147.185Z" fill="#1E1926"/>
<path d="M187.208 317.48C187.208 318.12 187.168 318.787 187.088 319.48H171.608C171.714 320.867 172.154 321.933 172.928 322.68C173.728 323.4 174.701 323.76 175.848 323.76C177.554 323.76 178.741 323.04 179.408 321.6H186.688C186.314 323.067 185.634 324.387 184.648 325.56C183.688 326.733 182.474 327.653 181.008 328.32C179.541 328.987 177.901 329.32 176.088 329.32C173.901 329.32 171.954 328.853 170.248 327.92C168.541 326.987 167.208 325.653 166.248 323.92C165.288 322.187 164.808 320.16 164.808 317.84C164.808 315.52 165.274 313.493 166.208 311.76C167.168 310.027 168.501 308.693 170.208 307.76C171.914 306.827 173.874 306.36 176.088 306.36C178.248 306.36 180.168 306.813 181.848 307.72C183.528 308.627 184.834 309.92 185.768 311.6C186.728 313.28 187.208 315.24 187.208 317.48ZM180.208 315.68C180.208 314.507 179.808 313.573 179.008 312.88C178.208 312.187 177.208 311.84 176.008 311.84C174.861 311.84 173.888 312.173 173.088 312.84C172.314 313.507 171.834 314.453 171.648 315.68H180.208Z" fill="#1E1926"/>
<path d="M206.133 306.4V312.08H215.293V317.36H206.133V323.52H216.493V329H199.293V300.92H216.493V306.4H206.133Z" fill="#1E1926"/>
<path d="M230.013 329.32C228.067 329.32 226.333 328.987 224.813 328.32C223.293 327.653 222.093 326.747 221.213 325.6C220.333 324.427 219.84 323.12 219.733 321.68H226.493C226.573 322.453 226.933 323.08 227.573 323.56C228.213 324.04 229 324.28 229.933 324.28C230.787 324.28 231.44 324.12 231.893 323.8C232.373 323.453 232.613 323.013 232.613 322.48C232.613 321.84 232.28 321.373 231.613 321.08C230.947 320.76 229.867 320.413 228.373 320.04C226.773 319.667 225.44 319.28 224.373 318.88C223.307 318.453 222.387 317.8 221.613 316.92C220.84 316.013 220.453 314.8 220.453 313.28C220.453 312 220.8 310.84 221.493 309.8C222.213 308.733 223.253 307.893 224.613 307.28C226 306.667 227.64 306.36 229.533 306.36C232.333 306.36 234.533 307.053 236.133 308.44C237.76 309.827 238.693 311.667 238.933 313.96H232.613C232.507 313.187 232.16 312.573 231.573 312.12C231.013 311.667 230.267 311.44 229.333 311.44C228.533 311.44 227.92 311.6 227.493 311.92C227.067 312.213 226.853 312.627 226.853 313.16C226.853 313.8 227.187 314.28 227.853 314.6C228.547 314.92 229.613 315.24 231.053 315.56C232.707 315.987 234.053 316.413 235.093 316.84C236.133 317.24 237.04 317.907 237.813 318.84C238.613 319.747 239.027 320.973 239.053 322.52C239.053 323.827 238.68 325 237.933 326.04C237.213 327.053 236.16 327.853 234.773 328.44C233.413 329.027 231.827 329.32 230.013 329.32Z" fill="#1E1926"/>
<path d="M255.678 323.2V329H252.198C249.718 329 247.785 328.4 246.398 327.2C245.011 325.973 244.318 323.987 244.318 321.24V312.36H241.598V306.68H244.318V301.24H251.158V306.68H255.638V312.36H251.158V321.32C251.158 321.987 251.318 322.467 251.638 322.76C251.958 323.053 252.491 323.2 253.238 323.2H255.678Z" fill="#1E1926"/>
<path d="M281.528 306.68V329H274.688V325.96C273.995 326.947 273.048 327.747 271.848 328.36C270.675 328.947 269.368 329.24 267.928 329.24C266.221 329.24 264.715 328.867 263.408 328.12C262.101 327.347 261.088 326.24 260.368 324.8C259.648 323.36 259.288 321.667 259.288 319.72V306.68H266.088V318.8C266.088 320.293 266.475 321.453 267.248 322.28C268.021 323.107 269.061 323.52 270.368 323.52C271.701 323.52 272.755 323.107 273.528 322.28C274.301 321.453 274.688 320.293 274.688 318.8V306.68H281.528Z" fill="#1E1926"/>
<path d="M285.081 317.8C285.081 315.507 285.508 313.493 286.361 311.76C287.241 310.027 288.428 308.693 289.921 307.76C291.414 306.827 293.081 306.36 294.921 306.36C296.388 306.36 297.721 306.667 298.921 307.28C300.148 307.893 301.108 308.72 301.801 309.76V299.4H308.641V329H301.801V325.8C301.161 326.867 300.241 327.72 299.041 328.36C297.868 329 296.494 329.32 294.921 329.32C293.081 329.32 291.414 328.853 289.921 327.92C288.428 326.96 287.241 325.613 286.361 323.88C285.508 322.12 285.081 320.093 285.081 317.8ZM301.801 317.84C301.801 316.133 301.321 314.787 300.361 313.8C299.428 312.813 298.281 312.32 296.921 312.32C295.561 312.32 294.401 312.813 293.441 313.8C292.508 314.76 292.041 316.093 292.041 317.8C292.041 319.507 292.508 320.867 293.441 321.88C294.401 322.867 295.561 323.36 296.921 323.36C298.281 323.36 299.428 322.867 300.361 321.88C301.321 320.893 301.801 319.547 301.801 317.84Z" fill="#1E1926"/>
<path d="M323.749 329.32C321.563 329.32 319.589 328.853 317.829 327.92C316.096 326.987 314.723 325.653 313.709 323.92C312.723 322.187 312.229 320.16 312.229 317.84C312.229 315.547 312.736 313.533 313.749 311.8C314.763 310.04 316.149 308.693 317.909 307.76C319.669 306.827 321.643 306.36 323.829 306.36C326.016 306.36 327.989 306.827 329.749 307.76C331.509 308.693 332.896 310.04 333.909 311.8C334.923 313.533 335.429 315.547 335.429 317.84C335.429 320.133 334.909 322.16 333.869 323.92C332.856 325.653 331.456 326.987 329.669 327.92C327.909 328.853 325.936 329.32 323.749 329.32ZM323.749 323.4C325.056 323.4 326.163 322.92 327.069 321.96C328.003 321 328.469 319.627 328.469 317.84C328.469 316.053 328.016 314.68 327.109 313.72C326.229 312.76 325.136 312.28 323.829 312.28C322.496 312.28 321.389 312.76 320.509 313.72C319.629 314.653 319.189 316.027 319.189 317.84C319.189 319.627 319.616 321 320.469 321.96C321.349 322.92 322.443 323.4 323.749 323.4Z" fill="#1E1926"/>
<path d="M348.138 329.32C346.192 329.32 344.458 328.987 342.938 328.32C341.418 327.653 340.218 326.747 339.338 325.6C338.458 324.427 337.965 323.12 337.858 321.68H344.618C344.698 322.453 345.058 323.08 345.698 323.56C346.338 324.04 347.125 324.28 348.058 324.28C348.912 324.28 349.565 324.12 350.018 323.8C350.498 323.453 350.738 323.013 350.738 322.48C350.738 321.84 350.405 321.373 349.738 321.08C349.072 320.76 347.992 320.413 346.498 320.04C344.898 319.667 343.565 319.28 342.498 318.88C341.432 318.453 340.512 317.8 339.738 316.92C338.965 316.013 338.578 314.8 338.578 313.28C338.578 312 338.925 310.84 339.618 309.8C340.338 308.733 341.378 307.893 342.738 307.28C344.125 306.667 345.765 306.36 347.658 306.36C350.458 306.36 352.658 307.053 354.258 308.44C355.885 309.827 356.818 311.667 357.058 313.96H350.738C350.632 313.187 350.285 312.573 349.698 312.12C349.138 311.667 348.392 311.44 347.458 311.44C346.658 311.44 346.045 311.6 345.618 311.92C345.192 312.213 344.978 312.627 344.978 313.16C344.978 313.8 345.312 314.28 345.978 314.6C346.672 314.92 347.738 315.24 349.178 315.56C350.832 315.987 352.178 316.413 353.218 316.84C354.258 317.24 355.165 317.907 355.938 318.84C356.738 319.747 357.152 320.973 357.178 322.52C357.178 323.827 356.805 325 356.058 326.04C355.338 327.053 354.285 327.853 352.898 328.44C351.538 329.027 349.952 329.32 348.138 329.32Z" fill="#1E1926"/>
<path d="M233.086 258.174L199.055 271.356C197.483 271.965 195.7 270.983 195.7 269.509V37.2266C195.7 36.1074 196.763 35.1996 198.073 35.1996H232.104C233.414 35.1996 234.476 36.1074 234.476 37.2266V256.327C234.476 257.123 233.931 257.844 233.086 258.174Z" fill="#4C30E8"/>
<path d="M142.189 124.621V256.425C142.189 257.345 142.728 258.178 143.561 258.559L177.138 273.788C178.689 274.492 180.448 273.357 180.448 271.654V128.134C180.448 126.194 178.876 124.621 176.937 124.621H142.189Z" fill="#1E1926"/>
<path d="M142.189 101.497V17.5997C142.189 16.6802 142.728 15.8469 143.561 15.4661L177.138 0.236934C178.689 -0.467057 180.448 0.66795 180.448 2.37046V101.497C180.448 102.79 179.4 103.839 178.107 103.839H144.53C143.237 103.839 142.189 102.79 142.189 101.497Z" fill="#1E1926"/>
<path d="M112.705 124.621H178.107C179.4 124.621 180.448 125.67 180.448 126.963V161.516H112.705C111.412 161.516 110.364 160.467 110.364 159.174V126.963C110.364 125.67 111.412 124.621 112.705 124.621Z" fill="#1E1926"/>
<path d="M234.268 122.085H318.513C319.805 122.085 320.854 123.134 320.854 124.427V156.638C320.854 157.931 319.805 158.98 318.513 158.98H234.268V122.085Z" fill="#4C30E8"/>
<path d="M126.65 187.937C97.2592 187.937 73.4334 164.102 73.4334 134.699C73.4334 105.297 97.2592 81.4619 126.65 81.4619C128.194 81.4619 129.731 81.5338 131.239 81.6703C132.603 81.7924 133.781 80.7149 133.781 79.3428V28.2028C133.781 26.7877 132.531 25.6742 131.131 25.8753C77.3397 33.6121 36.0001 79.9031 36.0001 135.856C36.0001 191.809 77.3397 238.1 131.131 245.837C132.531 246.038 133.781 244.924 133.781 243.509V190.056C133.781 188.684 132.61 187.607 131.239 187.729C129.723 187.865 128.194 187.937 126.65 187.937Z" fill="#1E1926"/>
<path d="M328.659 92.7776H251.897C250.604 92.7776 249.556 91.7288 249.556 90.4358V37.5431C249.556 35.7903 251.416 34.6552 252.974 35.467L329.736 75.2281C330.512 75.6304 331 76.435 331 77.3042V90.4358C331 91.7288 329.952 92.7776 328.659 92.7776Z" fill="#4C30E8"/>
<path d="M328.659 188.21H251.897C250.604 188.21 249.556 189.259 249.556 190.552V243.444C249.556 245.197 251.416 246.332 252.974 245.521L329.736 205.759C330.512 205.357 331 204.553 331 203.683V190.552C331 189.259 329.952 188.21 328.659 188.21Z" fill="#4C30E8"/>
<path d="M234.476 101.812V17.6337C234.476 16.7112 233.93 15.8751 233.086 15.4931L199.055 0.212774C197.483 -0.493579 195.7 0.645236 195.7 2.35346V101.812C195.7 103.11 196.763 104.162 198.073 104.162H232.104C233.414 104.162 234.476 103.11 234.476 101.812Z" fill="#4C30E8"/>
</svg>
