<svg width="187" height="126" viewBox="0 0 187 126" fill="none" xmlns="http://www.w3.org/2000/svg">
<path d="M47.1929 28.4001C40.9529 29.0668 35.2195 29.4001 29.9929 29.4001C27.3795 29.4001 25.4595 28.7868 24.2329 27.5601C23.0062 26.3334 22.3929 24.4134 22.3929 21.8001V9.0001C22.3929 6.2001 23.0195 4.17343 24.2729 2.9201C25.5529 1.6401 27.5929 1.0001 30.3929 1.0001H44.7929V6.6001H31.9929C30.3929 6.6001 29.5929 7.4001 29.5929 9.0001V21.8001C29.5929 22.4134 29.7662 22.9068 30.1129 23.2801C30.4862 23.6268 30.9795 23.8001 31.5929 23.8001C34.6595 23.8001 37.4595 23.7334 39.9929 23.6001V17.8001H34.7929V13.0001H47.1929V28.4001Z" fill="white"/>
<path d="M51.2007 1.0001H68.0007C70.8007 1.0001 72.8274 1.6401 74.0807 2.9201C75.3607 4.17343 76.0007 6.2001 76.0007 9.0001V12.6001C76.0007 14.8134 75.6274 16.5334 74.8807 17.7601C74.1607 18.9868 73.0007 19.8001 71.4007 20.2001L76.4007 29.0001H68.6007L64.0007 20.6001H58.4007V29.0001H51.2007V1.0001ZM68.8007 9.0001C68.8007 7.4001 68.0007 6.6001 66.4007 6.6001H58.4007V15.0001H66.4007C68.0007 15.0001 68.8007 14.2001 68.8007 12.6001V9.0001Z" fill="white"/>
<path d="M97.9897 1.0001H105.19V21.4001C105.19 24.2001 104.55 26.2401 103.27 27.5201C102.016 28.7734 99.9897 29.4001 97.1897 29.4001H87.9897C85.1897 29.4001 83.1497 28.7734 81.8697 27.5201C80.6164 26.2401 79.9897 24.2001 79.9897 21.4001V1.0001H87.1897V21.4001C87.1897 23.0001 87.9897 23.8001 89.5897 23.8001H95.5897C97.1897 23.8001 97.9897 23.0001 97.9897 21.4001V1.0001Z" fill="white"/>
<path d="M109.99 1.0001H126.79C129.59 1.0001 131.616 1.6401 132.87 2.9201C134.15 4.17343 134.79 6.2001 134.79 9.0001V13.0001C134.79 15.8001 134.15 17.8401 132.87 19.1201C131.616 20.3734 129.59 21.0001 126.79 21.0001H117.19V29.0001H109.99V1.0001ZM127.59 9.0001C127.59 7.4001 126.79 6.6001 125.19 6.6001H117.19V15.4001H125.19C126.79 15.4001 127.59 14.6001 127.59 13.0001V9.0001Z" fill="white"/>
<path d="M156.388 8.6001C156.388 7.0001 155.588 6.2001 153.988 6.2001H147.188C145.588 6.2001 144.788 7.0001 144.788 8.6001V21.4001C144.788 23.0001 145.588 23.8001 147.188 23.8001H153.988C155.588 23.8001 156.388 23.0001 156.388 21.4001V8.6001ZM163.588 21.4001C163.588 24.2001 162.948 26.2401 161.668 27.5201C160.415 28.7734 158.388 29.4001 155.588 29.4001H145.588C142.788 29.4001 140.748 28.7734 139.468 27.5201C138.215 26.2401 137.588 24.2001 137.588 21.4001V8.6001C137.588 5.8001 138.215 3.77343 139.468 2.5201C140.748 1.2401 142.788 0.600098 145.588 0.600098H155.588C158.388 0.600098 160.415 1.2401 161.668 2.5201C162.948 3.77343 163.588 5.8001 163.588 8.6001V21.4001Z" fill="white"/>
<path d="M83.9101 49.0001C86.9234 49.0001 89.2034 49.7868 90.7501 51.3601C92.3234 52.9068 93.1101 55.1868 93.1101 58.2001V67.8001C93.1101 70.8134 92.3234 73.1068 90.7501 74.6801C89.2034 76.2268 86.9234 77.0001 83.9101 77.0001H68.3101V49.0001H83.9101ZM85.9101 58.2001C85.9101 55.8001 84.7101 54.6001 82.3101 54.6001H75.5101V71.4001H82.3101C84.7101 71.4001 85.9101 70.2001 85.9101 67.8001V58.2001Z" fill="white"/>
<path d="M119.299 77.0001H97.0991V49.0001H119.299V54.6001H104.299V60.0001H116.099V65.6001H104.299V71.4001H119.299V77.0001Z" fill="white"/>
<path d="M22.6976 125H0.497559V97.0001H22.6976V102.6H7.69756V108H19.4976V113.6H7.69756V119.4H22.6976V125Z" fill="white"/>
<path d="M25.0482 119.2C32.3549 119.6 37.3015 119.8 39.8882 119.8C40.5015 119.8 40.9815 119.627 41.3282 119.28C41.7015 118.907 41.8882 118.413 41.8882 117.8V114.2H32.6882C29.8882 114.2 27.8482 113.573 26.5682 112.32C25.3149 111.04 24.6882 109 24.6882 106.2V105C24.6882 102.2 25.3149 100.173 26.5682 98.9201C27.8482 97.6401 29.8882 97.0001 32.6882 97.0001H46.7282V102.6H34.2882C32.6882 102.6 31.8882 103.4 31.8882 105V105.8C31.8882 107.4 32.6882 108.2 34.2882 108.2H41.4882C44.1015 108.2 46.0215 108.813 47.2482 110.04C48.4749 111.267 49.0882 113.187 49.0882 115.8V117.8C49.0882 120.413 48.4749 122.333 47.2482 123.56C46.0215 124.787 44.1015 125.4 41.4882 125.4C40.1282 125.4 38.6882 125.373 37.1682 125.32L33.4882 125.16C30.7682 125.027 27.9549 124.84 25.0482 124.6V119.2Z" fill="white"/>
<path d="M64.2929 125H57.0929V102.6H48.6929V97.0001H72.6929V102.6H64.2929V125Z" fill="white"/>
<path d="M93.4976 97.0001H100.698V117.4C100.698 120.2 100.058 122.24 98.7776 123.52C97.5242 124.773 95.4976 125.4 92.6976 125.4H83.4976C80.6976 125.4 78.6576 124.773 77.3776 123.52C76.1242 122.24 75.4976 120.2 75.4976 117.4V97.0001H82.6976V117.4C82.6976 119 83.4976 119.8 85.0976 119.8H91.0976C92.6976 119.8 93.4976 119 93.4976 117.4V97.0001Z" fill="white"/>
<path d="M121.098 97.0001C124.111 97.0001 126.391 97.7868 127.938 99.3601C129.511 100.907 130.298 103.187 130.298 106.2V115.8C130.298 118.813 129.511 121.107 127.938 122.68C126.391 124.227 124.111 125 121.098 125H105.498V97.0001H121.098ZM123.098 106.2C123.098 103.8 121.898 102.6 119.498 102.6H112.698V119.4H119.498C121.898 119.4 123.098 118.2 123.098 115.8V106.2Z" fill="white"/>
<path d="M152.287 104.6C152.287 103 151.487 102.2 149.887 102.2H143.087C141.487 102.2 140.687 103 140.687 104.6V117.4C140.687 119 141.487 119.8 143.087 119.8H149.887C151.487 119.8 152.287 119 152.287 117.4V104.6ZM159.487 117.4C159.487 120.2 158.847 122.24 157.567 123.52C156.313 124.773 154.287 125.4 151.487 125.4H141.487C138.687 125.4 136.647 124.773 135.367 123.52C134.113 122.24 133.487 120.2 133.487 117.4V104.6C133.487 101.8 134.113 99.7734 135.367 98.5201C136.647 97.2401 138.687 96.6001 141.487 96.6001H151.487C154.287 96.6001 156.313 97.2401 157.567 98.5201C158.847 99.7734 159.487 101.8 159.487 104.6V117.4Z" fill="white"/>
<path d="M162.665 119.2C169.972 119.6 174.919 119.8 177.505 119.8C178.119 119.8 178.599 119.627 178.945 119.28C179.319 118.907 179.505 118.413 179.505 117.8V114.2H170.305C167.505 114.2 165.465 113.573 164.185 112.32C162.932 111.04 162.305 109 162.305 106.2V105C162.305 102.2 162.932 100.173 164.185 98.9201C165.465 97.6401 167.505 97.0001 170.305 97.0001H184.345V102.6H171.905C170.305 102.6 169.505 103.4 169.505 105V105.8C169.505 107.4 170.305 108.2 171.905 108.2H179.105C181.719 108.2 183.639 108.813 184.865 110.04C186.092 111.267 186.705 113.187 186.705 115.8V117.8C186.705 120.413 186.092 122.333 184.865 123.56C183.639 124.787 181.719 125.4 179.105 125.4C177.745 125.4 176.305 125.373 174.785 125.32L171.105 125.16C168.385 125.027 165.572 124.84 162.665 124.6V119.2Z" fill="white"/>
</svg>
